if (_typeface_js && _typeface_js.loadFace) _typeface_js.loadFace({"glyphs":{"S":{"x_min":26,"x_max":458,"ha":491,"o":"m 407 886 q 351 918 379 905 q 288 931 324 931 q 197 890 230 931 q 165 796 165 850 q 174 735 165 761 q 203 682 183 709 l 309 566 q 371 498 344 530 q 419 429 399 465 q 448 353 438 394 q 458 259 458 312 q 441 154 458 204 q 392 67 424 105 q 315 8 360 30 q 211 -14 270 -14 q 131 -2 171 -14 q 59 35 90 9 l 59 176 q 123 137 91 152 q 196 122 156 122 q 289 165 260 122 q 319 267 319 209 q 297 360 319 320 q 243 435 276 400 q 172 505 210 470 q 101 581 134 540 q 47 673 69 622 q 26 793 26 724 q 40 897 26 849 q 84 982 55 946 q 157 1040 113 1018 q 260 1062 201 1062 q 337 1054 300 1062 q 407 1027 373 1046 l 407 886 "},"/":{"x_min":-40.28125,"x_max":606.9375,"ha":565,"o":"m 606 1154 l 72 -143 l -40 -143 l 497 1154 l 606 1154 "},"K":{"x_min":85,"x_max":582.546875,"ha":590,"o":"m 227 1048 l 227 544 l 422 1048 l 565 1048 l 360 540 l 582 0 l 422 0 l 227 530 l 227 0 l 85 0 l 85 1048 l 227 1048 "},"7":{"x_min":53,"x_max":521.046875,"ha":571,"o":"m 521 1048 l 203 0 l 53 0 l 344 927 l 53 927 l 53 1048 l 521 1048 "},"d":{"x_min":42,"x_max":469,"ha":529,"o":"m 260 106 q 310 136 293 106 q 333 208 326 167 q 340 289 340 248 q 340 351 340 330 q 340 413 340 372 q 333 494 340 454 q 310 565 326 534 q 260 596 293 596 q 205 566 223 596 q 180 495 187 536 q 173 412 173 454 q 173 351 173 372 q 173 287 173 329 q 180 206 173 247 q 205 135 187 165 q 260 106 223 106 m 338 90 l 335 90 q 288 16 315 44 q 205 -11 261 -11 q 137 8 165 -11 q 90 59 108 27 q 62 132 72 91 q 46 213 51 172 q 42 292 42 254 q 42 360 42 330 q 42 426 42 389 q 46 503 42 464 q 62 580 51 542 q 91 647 72 618 q 139 694 110 676 q 209 713 167 713 q 287 688 259 713 q 335 624 315 664 l 338 624 l 338 1154 l 469 1154 l 469 0 l 338 0 l 338 90 "},",":{"x_min":12.5,"x_max":218.0625,"ha":285,"o":"m 218 112 l 83 -255 l 12 -236 l 105 147 l 218 112 "},"Y":{"x_min":3.0625,"x_max":543.453125,"ha":545,"o":"m 153 1048 l 280 563 l 283 563 l 305 697 l 394 1048 l 543 1048 l 349 451 l 349 0 l 210 0 l 210 451 l 3 1048 l 153 1048 "},"E":{"x_min":85,"x_max":458.71875,"ha":482,"o":"m 458 1048 l 458 927 l 224 927 l 224 598 l 433 598 l 433 477 l 224 477 l 224 121 l 458 121 l 458 0 l 85 0 l 85 1048 l 458 1048 "},"y":{"x_min":5.5625,"x_max":506.9375,"ha":518,"o":"m 151 702 l 254 212 l 256 212 l 375 702 l 506 702 l 220 -288 l 83 -288 l 191 56 l 5 702 l 151 702 "},"\"":{"x_min":32,"x_max":317,"ha":348,"o":"m 214 1048 l 317 1048 l 317 734 l 214 734 l 214 1048 m 32 1048 l 135 1048 l 135 734 l 32 734 l 32 1048 "},"‹":{"x_min":36.109375,"x_max":277.78125,"ha":331,"o":"m 215 669 l 277 632 l 118 361 l 262 84 l 201 50 l 36 361 l 215 669 "},"„":{"x_min":52.78125,"x_max":448.609375,"ha":478,"o":"m 448 112 l 313 -255 l 243 -236 l 336 147 l 448 112 m 258 112 l 123 -255 l 52 -236 l 145 147 l 258 112 "},"g":{"x_min":43,"x_max":470.9375,"ha":531,"o":"m 339 347 q 339 409 339 367 q 331 493 339 451 q 306 565 323 534 q 256 596 288 596 q 205 565 222 596 q 180 493 187 534 q 174 412 174 452 q 174 353 174 372 q 174 292 174 334 q 181 209 174 251 q 206 136 189 167 q 258 105 223 105 q 309 134 292 105 q 332 204 326 164 q 339 285 339 244 q 339 347 339 326 m 470 -5 q 457 -157 470 -100 q 416 -246 443 -214 q 348 -288 388 -278 q 256 -299 308 -299 q 105 -246 161 -299 q 50 -95 50 -194 l 50 -76 l 175 -76 q 179 -114 175 -95 q 193 -147 183 -133 q 218 -172 202 -162 q 259 -182 234 -182 q 309 -168 293 -182 q 332 -132 325 -154 q 339 -83 339 -109 q 339 -33 339 -57 l 339 83 l 336 83 q 291 13 322 39 q 211 -13 259 -13 q 112 26 148 -13 q 59 120 76 65 q 43 238 43 176 q 43 345 43 300 q 43 411 43 373 q 47 490 43 449 q 61 571 51 531 q 90 642 72 611 q 137 693 107 673 q 208 713 166 713 q 288 686 261 713 q 336 618 315 660 l 339 621 l 339 702 l 470 702 l 470 -5 "},"–":{"x_min":0,"x_max":694,"ha":694,"o":"m 694 412 l 694 309 l 0 309 l 0 412 l 694 412 "},"ƒ":{"x_min":-76.390625,"x_max":654.171875,"ha":571,"o":"m 576 706 l 563 603 l 381 603 l 305 186 q 293 118 300 154 q 277 45 287 82 q 255 -25 268 8 q 225 -85 243 -59 q 172 -140 204 -117 q 106 -178 141 -163 q 32 -200 70 -193 q -43 -207 -5 -207 l -76 -207 l -55 -90 l -29 -90 q 59 -67 23 -84 q 122 -3 94 -51 q 138 35 130 11 q 154 84 147 58 q 165 134 161 109 q 175 179 170 159 l 248 603 l 158 603 l 170 706 l 268 706 l 297 874 q 325 988 306 935 q 374 1079 343 1040 q 452 1139 405 1117 q 570 1162 500 1162 q 654 1152 616 1162 l 631 1035 q 575 1045 606 1045 q 513 1034 540 1045 q 469 992 487 1024 q 443 927 452 963 q 427 858 434 892 l 397 706 l 576 706 "},"e":{"x_min":42,"x_max":462.828125,"ha":502,"o":"m 328 418 q 328 468 328 438 q 320 527 328 498 q 296 575 313 555 q 250 596 279 596 q 202 575 219 596 q 180 527 186 555 q 173 468 173 498 q 173 418 173 438 l 328 418 m 173 325 q 173 266 173 302 q 181 194 173 229 q 206 132 189 158 q 255 106 223 106 q 298 118 281 106 q 323 150 314 130 q 335 192 332 169 q 338 236 338 215 l 459 236 q 447 143 459 187 q 412 63 436 98 q 349 9 388 29 q 255 -11 310 -11 q 139 23 181 -11 q 75 111 97 58 q 47 228 53 165 q 42 346 42 290 q 42 423 42 382 q 48 505 42 464 q 69 583 55 546 q 107 649 83 621 q 165 695 131 678 q 248 713 199 713 q 362 676 320 713 q 427 583 405 639 q 456 464 450 528 q 462 345 462 400 l 462 325 l 173 325 "},"J":{"x_min":11,"x_max":336,"ha":421,"o":"m 336 259 q 329 154 336 204 q 301 66 323 104 q 239 7 280 29 q 130 -14 198 -14 q 69 -7 101 -14 q 11 13 37 -1 l 11 155 q 55 130 31 142 q 103 119 78 119 q 158 132 138 119 q 186 166 177 145 q 196 213 196 187 q 196 266 196 240 l 196 1048 l 336 1048 l 336 259 "},"|":{"x_min":125,"x_max":222,"ha":347,"o":"m 222 1093 l 222 -297 l 125 -297 l 125 1093 l 222 1093 "},"^":{"x_min":61.109375,"x_max":634.71875,"ha":694,"o":"m 380 1048 l 634 468 l 541 468 l 345 918 l 152 468 l 61 468 l 312 1048 l 380 1048 "},"q":{"x_min":43,"x_max":468,"ha":528,"o":"m 259 105 q 309 135 292 105 q 332 206 325 166 q 339 287 339 246 q 339 349 339 328 q 339 412 339 370 q 332 494 339 454 q 309 565 325 534 q 259 596 292 596 q 205 565 223 596 q 180 494 187 534 q 174 412 174 454 q 174 349 174 372 q 174 287 174 328 q 180 205 174 246 q 205 134 187 164 q 259 105 223 105 m 468 -288 l 337 -288 l 337 79 l 334 79 q 287 11 314 35 q 207 -12 259 -12 q 109 26 144 -12 q 59 120 75 65 q 43 237 43 175 q 43 342 43 298 q 43 409 43 370 q 47 489 43 448 q 63 571 52 530 q 91 642 73 611 q 137 693 109 674 q 205 713 165 713 q 287 685 259 713 q 334 611 314 657 l 337 611 l 337 702 l 468 702 l 468 -288 "},"b":{"x_min":60,"x_max":486,"ha":528,"o":"m 267 106 q 322 136 303 106 q 347 208 340 167 q 354 289 354 248 q 354 351 354 330 q 354 412 354 372 q 347 495 354 454 q 322 566 340 536 q 267 596 303 596 q 217 565 234 596 q 193 494 200 534 q 186 413 186 454 q 186 351 186 372 q 186 289 186 330 q 193 208 186 248 q 217 137 200 168 q 267 106 234 106 m 60 1154 l 191 1154 l 191 624 l 193 624 q 240 688 213 664 q 318 713 268 713 q 389 694 360 713 q 436 647 417 676 q 465 580 455 618 q 481 503 476 541 q 486 426 486 464 q 486 359 486 389 q 486 293 486 332 q 481 213 486 254 q 465 131 476 172 q 437 59 455 91 q 391 8 419 27 q 322 -11 362 -11 q 274 -4 294 -11 q 240 16 254 2 q 214 48 225 30 q 193 90 203 66 l 191 90 l 191 0 l 60 0 l 60 1154 "},"D":{"x_min":85,"x_max":591,"ha":648,"o":"m 441 506 q 441 593 441 546 q 436 690 441 641 q 419 782 431 738 q 384 860 408 827 q 320 912 359 893 q 224 931 281 931 l 224 117 q 356 152 310 117 q 421 243 401 187 q 441 369 441 299 q 441 506 441 439 m 240 1044 q 323 1044 281 1044 q 404 1027 365 1044 q 477 978 443 1011 q 536 884 511 944 q 576 731 561 824 q 591 505 591 638 q 577 297 591 383 q 539 156 564 212 q 479 67 514 100 q 397 19 443 34 q 297 4 351 4 q 180 4 243 4 l 85 4 l 85 1044 l 240 1044 "},"∙":{"x_min":60,"x_max":227,"ha":285,"o":"m 143 271 q 84 295 108 271 q 60 355 60 319 q 84 413 60 389 q 143 438 108 438 q 202 413 178 438 q 227 355 227 389 q 202 295 227 319 q 143 271 178 271 "},"ﬂ":{"x_min":29,"x_max":558,"ha":618,"o":"m 558 0 l 427 0 l 427 1154 l 558 1154 l 558 0 m 94 702 l 94 928 q 98 1015 94 973 q 117 1091 102 1057 q 164 1144 132 1124 q 252 1165 196 1165 q 297 1160 277 1165 q 340 1145 317 1155 l 340 1009 q 313 1021 326 1016 q 285 1026 301 1026 q 248 1014 261 1026 q 230 987 236 1003 q 225 950 225 970 q 225 913 225 931 l 225 702 l 333 702 l 333 599 l 225 599 l 225 0 l 94 0 l 94 599 l 29 599 l 29 702 l 94 702 "},"z":{"x_min":18.9375,"x_max":445.5,"ha":465,"o":"m 445 702 l 210 117 l 433 117 l 433 0 l 18 0 l 262 585 l 37 585 l 37 702 l 445 702 "},"w":{"x_min":-4.5,"x_max":680.5,"ha":676,"o":"m 133 702 l 208 212 l 208 199 l 210 199 l 241 417 l 295 702 l 388 702 l 468 212 l 468 199 l 470 199 l 506 460 l 552 702 l 680 702 l 515 0 l 426 0 l 355 360 l 341 516 l 338 516 l 308 264 l 256 0 l 166 0 l -4 702 l 133 702 "},"$":{"x_min":42,"x_max":531,"ha":571,"o":"m 316 1138 l 316 1044 q 445 1006 392 1044 q 518 893 499 968 l 411 829 q 370 902 403 874 q 289 931 336 931 q 235 920 257 931 q 200 891 214 910 q 180 847 186 872 q 175 794 175 822 q 188 721 175 751 q 224 669 201 692 q 277 626 247 646 q 342 585 307 607 q 427 528 391 554 q 485 469 463 501 q 519 396 508 437 q 531 293 531 354 q 521 187 531 237 q 486 98 511 137 q 420 32 461 58 q 316 0 378 7 l 316 -93 l 253 -93 l 253 0 q 122 44 169 7 q 48 158 75 82 l 163 214 q 204 142 176 168 q 282 117 233 117 q 338 129 315 117 q 373 164 360 142 q 392 214 386 186 q 398 273 398 242 q 387 346 398 318 q 358 394 377 373 q 312 432 339 415 q 254 469 286 448 q 161 531 201 501 q 96 596 122 561 q 55 677 69 632 q 42 787 42 722 q 54 883 42 837 q 93 962 66 928 q 159 1019 119 997 q 253 1047 198 1042 l 253 1138 l 316 1138 "},"™":{"x_min":0,"x_max":998,"ha":1041,"o":"m 389 965 l 238 965 l 238 463 l 153 463 l 153 965 l 0 965 l 0 1048 l 389 1048 l 389 965 m 998 463 l 922 463 l 922 965 l 919 965 l 755 463 l 710 463 l 550 965 l 548 965 l 548 463 l 472 463 l 472 1048 l 595 1048 l 731 635 l 734 635 l 876 1048 l 998 1048 l 998 463 "},"\\":{"x_min":-150,"x_max":497.21875,"ha":347,"o":"m -40 1154 l 497 -143 l 384 -143 l -150 1154 l -40 1154 "},"’":{"x_min":52.78125,"x_max":258.328125,"ha":296,"o":"m 258 1028 l 123 660 l 52 679 l 145 1061 l 258 1028 "},"~":{"x_min":61.109375,"x_max":634.71875,"ha":694,"o":"m 223 461 q 288 446 254 461 q 356 412 323 431 q 422 378 391 393 q 475 363 452 363 q 511 374 494 363 q 542 402 527 385 q 568 439 556 419 q 587 479 579 459 l 634 413 q 606 357 622 385 q 570 307 590 329 q 526 272 550 285 q 473 259 502 259 q 437 265 458 259 q 395 282 416 272 q 353 302 373 292 q 319 320 333 313 q 272 343 297 331 q 223 355 248 355 q 184 343 201 355 q 152 313 166 331 q 128 272 138 295 q 108 229 118 250 l 61 296 q 89 355 73 325 q 125 408 105 384 q 168 446 144 431 q 223 461 193 461 "},"-":{"x_min":44,"x_max":291,"ha":335,"o":"m 291 413 l 291 307 l 44 307 l 44 413 l 291 413 "},"Q":{"x_min":60,"x_max":634.71875,"ha":665,"o":"m 330 931 q 262 898 287 931 q 223 810 237 865 q 210 681 210 755 q 210 524 210 607 q 210 366 210 440 q 223 237 210 292 q 261 149 236 182 q 329 117 286 117 q 387 139 366 117 l 300 265 l 384 332 l 437 257 l 439 257 q 451 387 451 320 q 451 523 451 454 q 451 681 451 607 q 437 810 451 755 q 398 898 423 865 q 330 931 373 931 m 544 -80 l 470 29 q 406 -4 441 5 q 329 -14 371 -14 q 216 12 263 -14 q 139 83 169 38 q 92 184 108 127 q 67 300 75 240 q 60 418 60 359 q 60 524 60 476 q 60 629 60 571 q 67 747 60 688 q 92 863 75 807 q 139 964 108 920 q 215 1035 169 1009 q 330 1062 261 1062 q 444 1035 398 1062 q 520 964 490 1009 q 567 863 551 920 q 592 747 584 807 q 600 629 600 688 q 600 524 600 571 q 600 426 600 479 q 593 318 600 372 q 574 211 587 264 q 540 114 561 158 l 634 -16 l 544 -80 "},"M":{"x_min":76,"x_max":745.15625,"ha":779,"o":"m 238 1048 l 386 292 l 389 292 l 393 335 l 435 586 l 525 1048 l 647 1048 l 745 0 l 591 0 l 591 390 l 591 585 l 591 723 l 570 723 l 546 572 l 438 0 l 342 0 l 207 723 l 184 723 l 184 0 l 76 0 l 76 1048 l 238 1048 "},"C":{"x_min":62,"x_max":490,"ha":512,"o":"m 490 904 q 447 923 469 915 q 401 931 425 931 q 320 909 353 931 q 266 852 287 887 q 232 772 244 817 q 214 682 220 728 q 209 592 209 636 q 209 517 209 549 q 209 395 209 464 q 228 264 209 326 q 290 160 248 203 q 405 117 332 117 q 490 137 449 117 l 490 15 q 435 -7 463 -1 q 377 -14 408 -14 q 254 9 306 -14 q 166 72 202 33 q 108 164 130 112 q 73 274 85 216 q 62 391 62 332 q 62 507 62 451 q 62 621 62 560 q 72 744 62 682 q 103 863 82 806 q 159 964 124 920 q 245 1035 194 1009 q 368 1062 296 1062 q 431 1055 404 1062 q 490 1031 459 1049 l 490 904 "},"[":{"x_min":53,"x_max":356.71875,"ha":416,"o":"m 356 1048 l 356 953 l 172 953 l 172 -48 l 356 -48 l 356 -143 l 53 -143 l 53 1048 l 356 1048 "},"L":{"x_min":85,"x_max":457.328125,"ha":460,"o":"m 224 1048 l 224 121 l 457 121 l 457 0 l 85 0 l 85 1048 l 224 1048 "},"!":{"x_min":92,"x_max":259,"ha":351,"o":"m 175 -11 q 116 13 140 -11 q 92 72 92 37 q 116 131 92 107 q 175 156 140 156 q 234 131 210 156 q 259 72 259 107 q 234 13 259 37 q 175 -11 210 -11 m 246 1048 l 246 252 l 107 252 l 107 1048 l 246 1048 "}," ":{"x_min":0,"x_max":0,"ha":285},"ﬁ":{"x_min":29,"x_max":575,"ha":638,"o":"m 488 827 q 426 852 452 827 q 401 914 401 878 q 426 975 401 950 q 488 1001 452 1001 q 549 975 523 1001 q 575 914 575 950 q 549 852 575 878 q 488 827 523 827 m 558 0 l 427 0 l 427 702 l 558 702 l 558 0 m 94 702 l 94 928 q 98 1015 94 973 q 117 1091 102 1057 q 164 1144 132 1124 q 252 1165 196 1165 q 297 1160 277 1165 q 340 1145 317 1155 l 340 1009 q 313 1021 326 1016 q 285 1026 301 1026 q 248 1014 261 1026 q 230 987 236 1003 q 225 950 225 970 q 225 913 225 931 l 225 702 l 333 702 l 333 599 l 225 599 l 225 0 l 94 0 l 94 599 l 29 599 l 29 702 l 94 702 "},"{":{"x_min":3,"x_max":355,"ha":359,"o":"m 3 490 q 46 498 25 493 q 86 517 68 504 q 115 550 104 529 q 127 603 127 571 l 127 864 q 140 954 127 918 q 178 1010 153 989 q 236 1039 202 1031 q 311 1048 271 1048 l 355 1048 l 355 968 q 269 938 295 963 q 244 847 244 913 l 244 626 q 239 565 244 593 q 220 516 234 537 q 180 479 205 494 q 115 455 154 464 l 115 453 q 180 429 154 444 q 220 392 205 414 q 239 343 234 371 q 244 282 244 315 l 244 61 q 269 -29 244 -4 q 355 -59 295 -54 l 355 -139 l 311 -139 q 236 -130 271 -139 q 178 -101 202 -122 q 140 -45 153 -80 q 127 44 127 -9 l 127 305 q 115 358 127 337 q 86 391 104 379 q 46 410 68 404 q 3 418 25 415 l 3 490 "},"X":{"x_min":32.890625,"x_max":560.671875,"ha":593,"o":"m 182 1048 l 249 861 q 281 766 266 814 q 305 670 296 718 l 307 670 l 345 814 l 419 1048 l 560 1048 l 367 532 l 560 0 l 419 0 l 355 183 q 321 286 337 234 q 298 392 305 337 l 294 392 q 286 330 294 360 q 269 271 278 300 l 182 0 l 32 0 l 231 532 l 45 1048 l 182 1048 "},"P":{"x_min":85,"x_max":524,"ha":539,"o":"m 224 930 l 224 578 q 345 624 313 578 q 377 757 377 670 q 370 823 377 791 q 349 878 364 855 q 308 916 335 902 q 243 930 282 930 l 224 930 m 85 0 l 85 1048 l 251 1048 q 344 1041 296 1048 q 433 1008 393 1035 q 498 925 472 981 q 524 768 524 869 q 455 534 524 609 q 224 460 386 460 l 224 0 l 85 0 "},"%":{"x_min":58,"x_max":708,"ha":768,"o":"m 206 646 q 241 666 230 646 q 257 715 253 687 q 262 769 262 743 q 262 811 262 797 q 262 851 262 824 q 257 907 262 879 q 241 956 253 935 q 206 977 230 977 q 171 956 182 977 q 155 907 159 935 q 151 851 151 879 q 151 811 151 824 q 151 769 151 797 q 155 715 151 743 q 171 666 159 687 q 206 646 182 646 m 559 401 q 524 380 535 401 q 508 332 512 359 q 504 277 504 305 q 504 236 504 249 q 504 195 504 222 q 508 139 504 167 q 524 90 512 111 q 559 70 535 70 q 594 90 583 70 q 610 139 606 111 q 615 195 615 167 q 615 236 615 222 q 615 277 615 249 q 610 332 615 305 q 594 380 606 359 q 559 401 583 401 m 685 1047 l 166 0 l 80 0 l 599 1047 l 685 1047 m 559 484 q 640 459 610 484 q 685 397 670 435 q 703 316 699 360 q 708 235 708 272 q 703 154 708 198 q 685 73 699 110 q 640 11 670 36 q 559 -13 610 -13 q 478 11 508 -13 q 433 73 448 36 q 415 154 419 110 q 411 235 411 198 q 415 316 411 272 q 433 397 419 360 q 478 459 448 435 q 559 484 508 484 m 206 1060 q 287 1035 257 1060 q 332 973 317 1011 q 350 892 346 936 q 355 811 355 848 q 350 730 355 774 q 332 649 346 686 q 287 587 317 612 q 206 563 257 563 q 125 587 155 563 q 80 649 95 612 q 62 730 66 686 q 58 811 58 774 q 62 892 58 848 q 80 973 66 936 q 125 1035 95 1011 q 206 1060 155 1060 "},"#":{"x_min":-54.171875,"x_max":626.390625,"ha":571,"o":"m 318 441 l 370 613 l 248 613 l 197 441 l 318 441 m 94 359 l -54 359 l -30 441 l 119 441 l 172 613 l 20 613 l 44 695 l 195 695 l 305 1048 l 381 1048 l 273 695 l 395 695 l 502 1048 l 580 1048 l 472 695 l 626 695 l 602 613 l 447 613 l 394 441 l 550 441 l 529 359 l 369 359 l 259 0 l 183 0 l 293 359 l 172 359 l 59 0 l -16 0 l 94 359 "},"_":{"x_min":0,"x_max":694,"ha":694,"o":"m 694 -104 l 694 -174 l 0 -174 l 0 -104 l 694 -104 "},"+":{"x_min":61,"x_max":635,"ha":695,"o":"m 299 705 l 396 705 l 396 405 l 635 405 l 635 308 l 396 308 l 396 3 l 299 3 l 299 308 l 61 308 l 61 405 l 299 405 l 299 705 "},"‚":{"x_min":52.78125,"x_max":258.328125,"ha":296,"o":"m 258 112 l 123 -255 l 52 -236 l 145 147 l 258 112 "},")":{"x_min":73.171875,"x_max":325.9375,"ha":383,"o":"m 325 461 q 293 147 325 304 q 202 -157 262 -9 l 73 -123 q 160 168 127 16 q 194 469 194 319 q 158 753 194 608 q 73 1029 123 897 l 202 1061 q 295 767 264 918 q 325 461 325 615 "},"'":{"x_min":122,"x_max":225,"ha":347,"o":"m 122 1048 l 225 1048 l 225 734 l 122 734 l 122 1048 "},"}":{"x_min":4,"x_max":355,"ha":358,"o":"m 4 -59 q 89 -29 63 -54 q 115 61 115 -4 l 115 282 q 119 343 115 315 q 138 392 124 371 q 178 429 153 414 q 244 453 203 444 l 244 455 q 178 479 203 464 q 138 516 153 494 q 119 565 124 537 q 115 626 115 593 l 115 847 q 89 938 115 913 q 4 968 63 963 l 4 1048 l 46 1048 q 121 1039 87 1048 q 179 1010 155 1031 q 216 954 203 989 q 230 864 230 918 l 230 603 q 241 550 230 571 q 270 517 252 529 q 310 498 289 504 q 355 490 332 493 l 355 418 q 310 410 332 415 q 270 391 289 404 q 241 358 252 379 q 230 305 230 337 l 230 44 q 216 -45 230 -9 q 179 -101 203 -80 q 121 -130 155 -122 q 46 -139 87 -139 l 4 -139 l 4 -59 "},"‰":{"x_min":58,"x_max":1075,"ha":1135,"o":"m 926 70 q 961 90 949 70 q 977 139 973 111 q 982 193 982 167 q 982 235 982 221 q 982 275 982 248 q 977 331 982 303 q 961 380 973 359 q 926 401 949 401 q 890 380 902 401 q 874 331 878 359 q 870 275 870 303 q 870 235 870 248 q 870 193 870 221 q 874 139 870 167 q 890 90 878 111 q 926 70 902 70 m 559 70 q 594 90 583 70 q 610 139 606 111 q 615 193 615 167 q 615 235 615 221 q 615 275 615 248 q 610 331 615 303 q 594 380 606 359 q 559 401 583 401 q 524 380 535 401 q 508 331 512 359 q 504 275 504 303 q 504 235 504 248 q 504 193 504 221 q 508 139 504 167 q 524 90 512 111 q 559 70 535 70 m 206 646 q 241 666 230 646 q 257 715 253 687 q 262 769 262 743 q 262 811 262 797 q 262 851 262 824 q 257 907 262 879 q 241 956 253 935 q 206 977 230 977 q 171 956 182 977 q 155 907 159 935 q 151 851 151 879 q 151 811 151 824 q 151 769 151 797 q 155 715 151 743 q 171 666 159 687 q 206 646 182 646 m 685 1047 l 166 0 l 80 0 l 599 1047 l 685 1047 m 926 484 q 1007 459 977 484 q 1052 397 1037 435 q 1070 316 1066 360 q 1075 235 1075 272 q 1070 154 1075 198 q 1052 73 1066 110 q 1007 11 1037 36 q 926 -13 977 -13 q 844 11 874 -13 q 799 73 814 36 q 781 154 785 110 q 777 235 777 198 q 781 316 777 272 q 799 397 785 360 q 844 459 814 435 q 926 484 874 484 m 559 484 q 640 459 610 484 q 685 397 670 435 q 703 316 699 360 q 708 235 708 272 q 703 154 708 198 q 685 73 699 110 q 640 11 670 36 q 559 -13 610 -13 q 478 11 508 -13 q 433 73 448 36 q 415 154 419 110 q 411 235 411 198 q 415 316 411 272 q 433 397 419 360 q 478 459 448 435 q 559 484 508 484 m 206 563 q 125 587 155 563 q 80 649 95 612 q 62 730 66 686 q 58 811 58 774 q 62 892 58 848 q 80 973 66 936 q 125 1035 95 1011 q 206 1060 155 1060 q 287 1035 257 1060 q 332 973 317 1011 q 350 892 346 936 q 355 811 355 848 q 350 730 355 774 q 332 649 346 686 q 287 587 317 612 q 206 563 257 563 "},"a":{"x_min":42,"x_max":468,"ha":528,"o":"m 259 106 q 309 136 292 106 q 333 208 326 167 q 340 289 340 248 q 340 351 340 330 q 340 413 340 372 q 333 494 340 454 q 309 565 326 534 q 259 596 292 596 q 205 566 223 596 q 180 495 187 536 q 173 412 173 454 q 173 351 173 372 q 173 287 173 329 q 180 206 173 247 q 205 135 187 165 q 259 106 223 106 m 337 90 l 334 90 q 288 16 315 44 q 205 -11 261 -11 q 136 8 165 -11 q 90 59 108 27 q 62 132 72 91 q 46 213 51 172 q 42 292 42 254 q 42 360 42 330 q 42 426 42 389 q 46 503 42 464 q 62 580 51 542 q 91 647 72 618 q 138 694 110 676 q 209 713 167 713 q 285 688 255 713 q 334 624 316 663 l 337 624 l 337 702 l 468 702 l 468 0 l 337 0 l 337 90 "},"T":{"x_min":-5,"x_max":455,"ha":450,"o":"m 455 1048 l 455 927 l 298 927 l 298 0 l 159 0 l 159 927 l -5 927 l -5 1048 l 455 1048 "},"—":{"x_min":181,"x_max":1209,"ha":1390,"o":"m 1209 412 l 1209 309 l 181 309 l 181 412 l 1209 412 "},"=":{"x_min":61,"x_max":635,"ha":695,"o":"m 635 172 l 61 172 l 61 269 l 635 269 l 635 172 m 635 436 l 61 436 l 61 533 l 635 533 l 635 436 "},"N":{"x_min":85,"x_max":571,"ha":656,"o":"m 213 736 l 213 385 l 213 0 l 85 0 l 85 1048 l 218 1048 l 462 251 l 449 254 l 449 674 l 449 1048 l 571 1048 l 571 0 l 442 0 l 197 807 l 194 804 l 213 736 "},"⁄":{"x_min":-218.0625,"x_max":387.5,"ha":169,"o":"m 387 1048 l -131 0 l -218 0 l 301 1048 l 387 1048 "},"2":{"x_min":51.109375,"x_max":522,"ha":571,"o":"m 65 744 q 71 864 65 807 q 100 964 77 921 q 167 1034 123 1008 q 288 1060 212 1060 q 469 991 417 1060 q 522 801 522 923 q 503 675 522 743 q 458 539 485 607 q 400 406 431 471 q 341 290 368 341 l 252 121 l 512 121 l 512 0 l 51 0 l 305 537 q 356 670 332 601 q 380 809 380 739 q 375 853 380 830 q 360 893 371 875 q 331 923 349 911 q 286 935 313 935 q 234 909 250 935 q 211 851 217 884 q 205 784 205 818 q 205 734 205 751 l 205 707 l 65 707 l 65 744 "},"j":{"x_min":39,"x_max":213,"ha":251,"o":"m 126 825 q 64 850 90 825 q 39 912 39 876 q 64 973 39 948 q 126 999 90 999 q 187 973 161 999 q 213 912 213 948 q 187 850 213 876 q 126 825 161 825 m 191 -288 l 60 -288 l 60 702 l 191 702 l 191 -288 "},"Z":{"x_min":20.5,"x_max":520.65625,"ha":546,"o":"m 520 1048 l 205 121 l 504 121 l 504 0 l 20 0 l 338 927 l 58 927 l 58 1048 l 520 1048 "},"u":{"x_min":61,"x_max":481,"ha":541,"o":"m 192 702 l 192 262 q 192 211 192 239 q 198 162 192 184 q 222 123 205 139 q 272 108 239 108 q 321 122 305 108 q 343 158 337 136 q 350 205 350 180 q 350 255 350 232 l 350 702 l 481 702 l 481 228 q 471 129 481 173 q 439 53 462 84 q 377 5 417 22 q 277 -11 337 -11 q 163 8 207 -11 q 97 62 120 27 q 67 146 74 97 q 61 255 61 196 l 61 702 l 192 702 "},"1":{"x_min":115.21875,"x_max":354,"ha":571,"o":"m 354 1048 l 354 0 l 218 0 l 218 927 l 115 927 l 115 1048 l 354 1048 "},"›":{"x_min":52.78125,"x_max":294.4375,"ha":331,"o":"m 129 50 l 68 84 l 212 361 l 52 632 l 115 669 l 294 361 l 129 50 "},"k":{"x_min":61,"x_max":526.71875,"ha":549,"o":"m 192 1154 l 192 391 l 194 391 l 357 702 l 503 702 l 323 391 l 526 0 l 375 0 l 194 372 l 192 372 l 192 0 l 61 0 l 61 1154 l 192 1154 "},"€":{"x_min":27.453125,"x_max":550.890625,"ha":570,"o":"m 537 914 q 492 928 514 922 q 446 935 470 935 q 340 906 381 935 q 273 834 298 878 q 236 737 248 790 q 220 634 224 683 l 505 634 l 496 564 l 218 564 l 218 516 q 218 484 218 501 q 218 450 218 468 l 484 450 l 475 381 l 224 381 q 245 284 230 332 q 285 197 259 236 q 351 135 310 159 q 453 111 392 111 q 497 115 477 111 q 537 126 517 119 l 537 8 q 485 -9 512 -4 q 430 -14 459 -14 q 273 20 335 -14 q 171 111 210 55 q 114 237 133 166 q 88 381 95 308 l 27 381 l 35 450 l 83 450 l 83 564 l 27 564 l 35 634 l 90 634 q 108 783 90 707 q 164 920 126 858 q 263 1021 201 982 q 419 1060 324 1060 q 488 1053 458 1060 q 550 1029 518 1047 l 537 914 "},"<":{"x_min":61,"x_max":635,"ha":695,"o":"m 61 397 l 635 719 l 635 618 l 169 353 l 635 87 l 635 -13 l 61 308 l 61 397 "},"t":{"x_min":17,"x_max":288,"ha":307,"o":"m 219 901 l 219 702 l 288 702 l 288 599 l 219 599 l 219 0 l 88 0 l 88 599 l 17 599 l 17 702 l 88 702 l 88 901 l 219 901 "},"W":{"x_min":2.5,"x_max":820.9375,"ha":822,"o":"m 138 1048 l 240 337 l 240 260 l 245 260 l 287 611 l 359 1048 l 468 1048 l 582 267 l 584 267 l 622 603 l 686 1048 l 820 1048 l 637 0 l 526 0 l 447 487 l 414 751 l 414 778 l 411 778 l 380 496 l 297 0 l 183 0 l 2 1048 l 138 1048 "},"v":{"x_min":18.0625,"x_max":479.171875,"ha":497,"o":"m 156 702 l 251 171 l 254 171 l 258 212 l 309 496 l 352 702 l 479 702 l 294 0 l 208 0 l 18 702 l 156 702 "},">":{"x_min":61,"x_max":635,"ha":695,"o":"m 635 308 l 61 -13 l 61 87 l 526 353 l 61 618 l 61 719 l 635 397 l 635 308 "},"s":{"x_min":19,"x_max":358,"ha":383,"o":"m 325 558 q 278 585 305 575 q 227 596 251 596 q 164 576 191 596 q 138 521 138 557 q 154 470 138 491 q 195 429 170 448 q 249 389 220 410 q 302 344 277 369 q 342 282 326 318 q 358 197 358 247 q 304 46 358 104 q 156 -11 251 -11 q 97 -3 122 -11 q 43 22 72 4 l 43 150 q 92 118 67 130 q 151 106 117 106 q 216 130 194 106 q 239 194 239 154 q 222 248 239 225 q 181 291 206 271 q 128 331 156 311 q 75 377 100 351 q 34 437 50 403 q 19 521 19 472 q 32 598 19 562 q 71 658 46 633 q 130 698 95 683 q 206 713 165 713 q 268 706 240 713 q 325 682 297 699 l 325 558 "},"B":{"x_min":85,"x_max":515,"ha":580,"o":"m 364 773 q 358 832 364 803 q 338 882 352 860 q 300 917 323 905 q 240 930 276 930 l 216 930 l 216 585 q 294 598 265 585 q 339 636 323 611 q 359 696 354 661 q 364 773 364 731 m 216 117 q 291 128 262 117 q 337 160 320 139 q 361 214 354 181 q 368 290 368 247 q 362 367 368 333 q 340 426 356 402 q 293 462 323 450 q 216 475 264 475 l 216 117 m 85 0 l 85 1048 l 258 1048 q 375 1029 329 1048 q 450 974 422 1010 q 488 886 477 938 q 500 767 500 833 q 495 691 500 728 q 475 623 490 654 q 435 568 461 591 q 368 534 409 546 l 368 532 q 440 494 412 518 q 485 438 469 470 q 508 368 502 407 q 515 286 515 329 q 455 70 515 141 q 251 0 395 0 l 85 0 "},"…":{"x_min":149,"x_max":1240,"ha":1389,"o":"m 694 -14 q 635 10 659 -14 q 611 70 611 34 q 635 128 611 104 q 694 153 659 153 q 753 128 729 153 q 778 70 778 104 q 753 10 778 34 q 694 -14 729 -14 m 1156 -14 q 1097 10 1121 -14 q 1073 70 1073 34 q 1097 128 1073 104 q 1156 153 1121 153 q 1215 128 1191 153 q 1240 70 1240 104 q 1215 10 1240 34 q 1156 -14 1191 -14 m 232 -14 q 173 10 197 -14 q 149 70 149 34 q 173 128 149 104 q 232 153 197 153 q 291 128 267 153 q 316 70 316 104 q 291 10 316 34 q 232 -14 267 -14 "},"?":{"x_min":47,"x_max":436,"ha":474,"o":"m 230 -11 q 171 13 195 -11 q 147 72 147 37 q 171 131 147 107 q 230 156 195 156 q 289 131 265 156 q 314 72 314 107 q 289 13 314 37 q 230 -11 265 -11 m 171 248 l 171 562 l 202 562 q 262 576 240 562 q 293 615 283 591 q 303 670 303 639 q 303 732 303 700 q 303 785 303 750 q 298 856 303 821 q 279 916 293 891 q 236 942 264 942 q 200 929 211 942 q 183 896 188 916 q 178 853 178 875 q 178 814 178 831 l 178 790 l 47 790 l 47 806 q 52 904 47 858 q 76 985 58 950 q 131 1041 95 1020 q 230 1062 167 1062 q 343 1035 302 1062 q 405 965 384 1009 q 431 865 426 921 q 436 747 436 809 q 436 660 436 708 q 422 568 436 611 q 378 497 408 525 q 293 468 347 468 l 293 248 l 171 248 "},"H":{"x_min":85,"x_max":573,"ha":658,"o":"m 224 1048 l 224 639 l 434 639 l 434 1048 l 573 1048 l 573 0 l 434 0 l 434 518 l 224 518 l 224 0 l 85 0 l 85 1048 l 224 1048 "},"c":{"x_min":40,"x_max":353,"ha":386,"o":"m 353 557 l 350 557 q 288 589 329 589 q 221 562 245 589 q 186 500 197 536 q 175 424 175 464 q 175 356 175 383 q 175 288 175 329 q 186 207 175 246 q 220 139 197 167 q 285 111 242 111 q 322 118 307 111 q 353 137 337 126 l 353 16 q 247 -11 305 -11 q 136 25 177 -11 q 74 114 95 61 q 46 230 52 168 q 40 344 40 291 q 45 463 40 398 q 71 583 51 528 q 134 675 92 637 q 248 713 176 713 q 353 689 304 713 l 353 557 "},"&":{"x_min":35,"x_max":654.953125,"ha":687,"o":"m 283 612 q 319 649 301 630 q 351 688 336 668 q 374 733 365 709 q 384 784 384 756 q 364 844 384 820 q 307 868 344 868 q 248 838 271 868 q 225 776 225 809 q 244 691 225 731 q 283 612 264 651 m 247 419 q 189 343 211 381 q 168 252 168 305 q 176 198 168 224 q 200 151 184 172 q 236 118 215 130 q 286 105 258 105 q 347 125 322 105 q 392 177 372 145 l 247 419 m 450 81 q 370 11 418 36 q 269 -14 322 -14 q 176 7 219 -14 q 102 65 133 29 q 53 148 71 101 q 35 247 35 195 q 46 327 35 288 q 78 401 58 366 q 124 467 98 436 q 180 527 151 498 q 121 645 145 580 q 97 773 97 709 q 111 853 97 816 q 152 916 126 890 q 216 958 179 943 q 297 974 252 974 q 441 925 385 974 q 498 784 498 876 q 484 703 498 741 q 448 631 470 665 q 399 566 427 597 q 342 508 371 536 l 479 280 l 566 402 l 654 330 l 543 174 l 654 0 l 500 0 l 450 81 "},"−":{"x_min":61,"x_max":635,"ha":695,"o":"m 61 404 l 635 404 l 635 307 l 61 307 l 61 404 "},"I":{"x_min":85,"x_max":224,"ha":309,"o":"m 224 0 l 85 0 l 85 1048 l 224 1048 l 224 0 "},"•":{"x_min":17,"x_max":541,"ha":556,"o":"m 17 524 q 37 625 17 578 q 92 709 57 673 q 175 766 128 745 q 276 787 222 787 q 380 766 332 787 q 463 709 428 745 q 520 625 499 673 q 541 524 541 578 q 520 423 541 471 q 463 340 499 375 q 380 283 428 304 q 276 263 332 263 q 175 283 222 263 q 92 340 128 304 q 37 423 57 375 q 17 524 17 471 "},"G":{"x_min":65,"x_max":583,"ha":639,"o":"m 583 553 l 583 536 q 583 425 583 486 q 583 304 583 365 q 569 186 583 243 q 529 84 556 129 q 455 13 501 40 q 341 -14 410 -14 q 194 27 248 -14 q 110 142 139 69 q 73 312 81 215 q 65 521 65 410 q 65 729 65 631 q 92 901 65 827 q 173 1018 120 975 q 319 1062 227 1062 q 417 1048 375 1062 q 491 1007 460 1034 q 543 939 522 979 q 578 847 564 899 l 447 793 q 434 844 441 819 q 414 887 427 868 q 379 919 400 907 q 326 931 358 931 q 257 902 282 931 q 220 821 233 874 q 208 692 208 768 q 208 522 208 617 q 218 305 208 386 q 245 183 228 225 q 284 129 262 142 q 328 117 305 117 q 370 121 349 117 q 409 151 392 126 q 436 228 426 176 q 447 375 447 280 l 447 432 l 330 432 l 330 553 l 583 553 "},"(":{"x_min":57,"x_max":309.765625,"ha":383,"o":"m 309 1029 q 224 753 259 897 q 188 469 188 608 q 222 168 188 319 q 309 -123 255 16 l 180 -157 q 88 147 120 -9 q 57 461 57 304 q 87 767 57 615 q 180 1061 118 918 l 309 1029 "},"`":{"x_min":91.671875,"x_max":298.609375,"ha":389,"o":"m 184 1036 l 298 829 l 229 789 l 91 977 l 184 1036 "},"U":{"x_min":85,"x_max":562,"ha":650,"o":"m 224 1048 l 224 279 q 230 197 224 229 q 251 147 237 165 q 282 123 264 129 q 321 117 300 117 q 378 128 357 117 q 409 158 399 139 q 423 205 420 178 q 427 264 427 232 l 427 1048 l 562 1048 l 562 304 q 562 196 562 252 q 539 93 562 140 q 467 16 517 47 q 327 -14 417 -14 q 194 12 243 -14 q 122 84 146 38 q 91 192 97 130 q 85 325 85 254 l 85 1048 l 224 1048 "},"F":{"x_min":85,"x_max":461.5,"ha":475,"o":"m 461 1048 l 461 927 l 224 927 l 224 598 l 437 598 l 437 477 l 224 477 l 224 0 l 85 0 l 85 1048 l 461 1048 "},"r":{"x_min":61,"x_max":342.9375,"ha":373,"o":"m 191 616 l 194 616 q 253 687 217 661 q 342 713 288 713 l 342 584 l 320 584 q 220 546 247 584 q 192 442 192 508 l 192 0 l 61 0 l 61 702 l 191 702 l 191 616 "},":":{"x_min":60,"x_max":227,"ha":285,"o":"m 143 545 q 84 569 108 545 q 60 629 60 593 q 84 687 60 663 q 143 712 108 712 q 202 687 178 712 q 227 629 227 663 q 202 569 227 593 q 143 545 178 545 m 143 -11 q 84 13 108 -11 q 60 73 60 37 q 84 131 60 107 q 143 156 108 156 q 202 131 178 156 q 227 73 227 107 q 202 13 227 37 q 143 -11 178 -11 "},"x":{"x_min":19.5,"x_max":530.625,"ha":549,"o":"m 172 702 l 270 461 l 304 565 l 361 702 l 497 702 l 338 371 l 530 0 l 376 0 l 307 151 q 279 216 293 183 q 261 285 266 250 l 257 285 q 241 206 257 244 q 211 130 226 168 l 155 0 l 19 0 l 194 371 l 19 702 l 172 702 "},"*":{"x_min":40.453125,"x_max":455.5625,"ha":496,"o":"m 272 1048 l 272 863 l 426 960 l 455 913 l 294 821 l 455 732 l 426 685 l 275 778 l 275 599 l 221 599 l 221 782 l 72 685 l 40 732 l 197 821 l 40 904 l 66 954 l 221 863 l 221 1048 l 272 1048 "},"†":{"x_min":40,"x_max":458,"ha":498,"o":"m 315 1048 l 315 702 l 458 702 l 458 588 l 315 588 l 315 -190 l 184 -190 l 184 588 l 40 588 l 40 702 l 184 702 l 184 1048 l 315 1048 "},"∕":{"x_min":-218.0625,"x_max":387.5,"ha":169,"o":"m 387 1048 l -131 0 l -218 0 l 301 1048 l 387 1048 "},"V":{"x_min":9.71875,"x_max":529.171875,"ha":538,"o":"m 148 1048 l 268 260 l 270 260 l 277 325 l 333 678 l 397 1048 l 529 1048 l 323 0 l 212 0 l 9 1048 l 148 1048 "},"μ":{"x_min":61,"x_max":476,"ha":539,"o":"m 476 701 l 476 218 q 476 137 476 178 q 462 63 476 96 q 419 8 449 29 q 337 -12 390 -12 q 250 12 284 -12 q 194 80 216 36 l 192 80 l 192 -284 l 61 -284 l 61 701 l 192 701 l 192 263 q 192 213 192 241 q 198 161 192 185 q 222 121 205 138 q 270 105 238 105 q 312 115 296 105 q 335 142 327 125 q 345 178 343 159 q 348 216 348 198 l 348 701 l 476 701 "},"h":{"x_min":61,"x_max":476,"ha":539,"o":"m 192 1154 l 192 621 l 194 621 q 250 688 216 664 q 337 713 284 713 q 419 692 390 713 q 462 637 449 671 q 476 563 476 604 q 476 482 476 522 l 476 0 l 348 0 l 348 484 q 345 522 348 502 q 335 558 343 541 q 312 585 327 575 q 270 596 296 596 q 222 579 238 596 q 198 539 205 562 q 192 487 192 515 q 192 437 192 459 l 192 0 l 61 0 l 61 1154 l 192 1154 "},"0":{"x_min":49,"x_max":524,"ha":571,"o":"m 385 523 q 385 679 385 605 q 374 811 385 754 q 343 901 363 868 q 286 935 322 935 q 228 901 249 935 q 197 811 208 868 q 187 679 187 754 q 187 523 187 605 q 187 367 187 441 q 197 235 187 292 q 228 145 208 178 q 286 112 249 112 q 343 145 322 112 q 374 235 363 178 q 385 367 385 292 q 385 523 385 441 m 286 1060 q 390 1031 349 1060 q 458 957 432 1003 q 499 853 485 911 q 518 736 512 795 q 524 620 524 676 q 524 523 524 565 q 524 426 524 481 q 518 310 524 370 q 499 193 512 251 q 458 89 485 135 q 390 15 432 43 q 286 -13 349 -13 q 182 15 224 -13 q 114 89 140 43 q 74 193 87 135 q 54 310 60 251 q 49 426 49 370 q 49 523 49 481 q 49 620 49 565 q 54 736 49 676 q 74 853 60 795 q 114 957 87 911 q 182 1031 140 1003 q 286 1060 224 1060 "},".":{"x_min":60,"x_max":227,"ha":285,"o":"m 143 -11 q 84 13 108 -11 q 60 73 60 37 q 84 131 60 107 q 143 156 108 156 q 202 131 178 156 q 227 73 227 107 q 202 13 227 37 q 143 -11 178 -11 "},"”":{"x_min":52.78125,"x_max":448.609375,"ha":478,"o":"m 448 1028 l 313 660 l 243 679 l 336 1061 l 448 1028 m 258 1028 l 123 660 l 52 679 l 145 1061 l 258 1028 "},"@":{"x_min":37,"x_max":1070,"ha":1110,"o":"m 463 293 q 558 334 515 293 q 630 434 600 376 q 676 556 660 493 q 692 658 692 618 q 667 727 692 699 q 597 755 642 755 q 497 720 542 755 q 422 636 453 686 q 375 528 392 586 q 359 422 359 471 q 383 331 359 370 q 463 293 408 293 m 777 817 l 873 817 l 729 387 q 717 351 723 372 q 711 315 711 330 q 722 285 711 297 q 752 274 734 274 q 823 296 783 274 q 897 364 863 319 q 956 472 932 408 q 981 618 981 536 q 947 770 981 703 q 858 882 914 837 q 730 952 803 928 q 576 976 657 976 q 396 939 478 976 q 254 841 314 903 q 160 696 193 779 q 127 518 127 613 q 162 342 127 423 q 258 200 197 261 q 402 106 320 140 q 579 72 485 72 q 789 117 689 72 q 951 251 889 162 l 1039 251 q 956 140 1006 189 q 846 56 906 91 q 717 4 785 22 q 580 -14 649 -14 q 365 28 465 -14 q 192 145 265 70 q 78 318 120 219 q 37 529 37 416 q 80 736 37 639 q 196 906 123 834 q 369 1020 270 978 q 580 1062 467 1062 q 765 1028 676 1062 q 921 936 854 995 q 1029 794 989 877 q 1070 612 1070 711 q 1045 476 1070 548 q 975 342 1020 404 q 869 240 931 280 q 732 200 807 200 q 659 217 696 200 q 610 274 622 234 q 532 221 578 240 q 442 203 486 203 q 360 219 396 203 q 298 265 324 236 q 258 333 272 294 q 245 415 245 372 q 270 562 245 486 q 342 701 296 637 q 452 804 388 764 q 596 845 517 845 q 690 821 646 845 q 756 750 734 798 l 777 817 "},"f":{"x_min":29,"x_max":340,"ha":346,"o":"m 94 702 l 94 928 q 98 1015 94 973 q 117 1091 102 1057 q 164 1144 132 1124 q 252 1165 196 1165 q 297 1160 277 1165 q 340 1145 317 1155 l 340 1009 q 313 1021 326 1016 q 285 1026 301 1026 q 248 1014 261 1026 q 230 987 236 1003 q 225 950 225 970 q 225 913 225 931 l 225 702 l 333 702 l 333 599 l 225 599 l 225 0 l 94 0 l 94 599 l 29 599 l 29 702 l 94 702 "},";":{"x_min":14.171875,"x_max":227,"ha":285,"o":"m 143 545 q 84 569 108 545 q 60 629 60 593 q 84 687 60 663 q 143 712 108 712 q 202 687 178 712 q 227 629 227 663 q 202 569 227 593 q 143 545 178 545 m 220 112 l 86 -255 l 14 -236 l 107 147 l 220 112 "},"“":{"x_min":29.171875,"x_max":425,"ha":478,"o":"m 29 692 l 162 1061 l 234 1041 l 141 658 l 29 692 m 219 692 l 352 1061 l 425 1041 l 331 658 l 219 692 "},"i":{"x_min":39,"x_max":213,"ha":251,"o":"m 126 827 q 64 852 90 827 q 39 914 39 878 q 64 975 39 950 q 126 1001 90 1001 q 187 975 161 1001 q 213 914 213 950 q 187 852 213 878 q 126 827 161 827 m 191 0 l 60 0 l 60 702 l 191 702 l 191 0 "},"6":{"x_min":60,"x_max":507,"ha":571,"o":"m 368 313 q 368 372 368 337 q 360 440 368 407 q 336 496 352 473 q 288 519 319 519 q 266 516 280 519 q 238 496 252 514 q 213 435 223 477 q 203 314 203 393 q 203 257 203 292 q 211 191 203 223 q 237 135 219 159 q 287 112 255 112 q 334 134 317 112 q 359 190 351 157 q 368 257 368 223 q 368 313 368 291 m 422 1047 l 218 599 l 221 596 q 269 630 244 617 q 329 644 295 644 q 432 610 395 644 q 488 527 470 577 q 507 419 507 477 q 507 314 507 362 q 500 195 507 253 q 471 90 494 137 q 404 15 449 43 q 284 -13 359 -13 q 163 19 207 -13 q 95 103 119 52 q 66 217 72 155 q 60 341 60 280 q 76 536 60 448 q 121 707 93 624 q 189 872 150 790 q 272 1047 227 953 l 422 1047 "},"A":{"x_min":5.5625,"x_max":568.0625,"ha":575,"o":"m 340 463 l 287 845 l 284 845 l 201 312 l 368 312 l 340 463 m 343 1047 l 568 0 l 427 0 l 388 204 l 180 204 l 141 0 l 5 0 l 233 1047 l 343 1047 "},"‘":{"x_min":37.5,"x_max":243.0625,"ha":296,"o":"m 37 692 l 170 1061 l 243 1041 l 150 658 l 37 692 "},"n":{"x_min":61,"x_max":476,"ha":539,"o":"m 192 621 l 194 621 q 250 688 216 664 q 337 713 284 713 q 418 692 389 713 q 461 637 447 671 q 476 563 476 604 q 476 482 476 522 l 476 0 l 348 0 l 348 484 q 345 522 348 502 q 335 558 343 541 q 312 585 327 575 q 270 596 296 596 q 222 579 238 596 q 198 539 205 562 q 192 487 192 515 q 192 437 192 459 l 192 0 l 61 0 l 61 702 l 192 702 l 192 621 "},"O":{"x_min":60,"x_max":602,"ha":662,"o":"m 331 931 q 262 898 287 931 q 223 810 237 865 q 210 681 210 755 q 210 524 210 607 q 210 366 210 440 q 223 237 210 292 q 262 149 237 182 q 331 117 287 117 q 399 149 374 117 q 438 237 424 182 q 452 366 452 292 q 452 524 452 440 q 452 681 452 607 q 438 810 452 755 q 399 898 424 865 q 331 931 374 931 m 331 1062 q 445 1035 399 1062 q 522 964 491 1009 q 569 863 553 920 q 594 747 586 807 q 602 629 602 688 q 602 524 602 571 q 602 418 602 476 q 594 300 602 359 q 569 184 586 240 q 522 83 553 127 q 444 12 491 38 q 331 -14 398 -14 q 217 12 263 -14 q 139 83 170 38 q 92 184 108 127 q 67 300 75 240 q 60 418 60 359 q 60 524 60 476 q 60 629 60 571 q 67 747 60 688 q 92 863 75 807 q 139 964 108 920 q 216 1035 170 1009 q 331 1062 262 1062 "},"3":{"x_min":57,"x_max":518,"ha":571,"o":"m 213 482 l 213 607 l 229 607 q 301 615 273 607 q 344 643 328 623 q 365 692 360 662 q 371 766 371 722 q 371 816 371 787 q 363 871 371 846 q 339 916 355 897 q 292 935 323 935 q 248 921 264 935 q 224 887 232 908 q 212 843 215 866 q 210 798 210 819 l 210 767 l 77 767 l 77 776 q 83 887 77 836 q 112 977 90 939 q 174 1037 133 1015 q 286 1060 216 1060 q 393 1039 351 1060 q 459 981 435 1018 q 493 895 483 944 q 502 789 502 846 q 502 714 502 752 q 490 641 502 675 q 454 580 478 607 q 389 541 430 554 l 389 538 q 457 503 432 527 q 496 445 483 479 q 513 374 509 412 q 518 297 518 335 q 506 178 518 234 q 468 79 495 121 q 395 12 441 37 q 277 -13 348 -13 q 107 50 158 -13 q 57 230 57 113 l 57 262 l 190 262 l 190 228 q 194 185 190 206 q 208 148 198 164 q 236 121 219 131 q 278 112 253 112 q 335 132 316 112 q 365 183 355 153 q 375 247 375 213 q 375 307 375 281 q 370 372 375 340 q 353 428 366 404 q 317 467 341 452 q 253 482 293 482 l 213 482 "},"]":{"x_min":59.28125,"x_max":363,"ha":416,"o":"m 363 1048 l 363 -143 l 59 -143 l 59 -48 l 244 -48 l 244 953 l 59 953 l 59 1048 l 363 1048 "},"m":{"x_min":60,"x_max":760,"ha":820,"o":"m 191 616 l 194 616 q 248 686 214 660 q 332 713 282 713 q 413 687 379 713 q 458 616 447 661 l 461 616 q 517 687 481 661 q 605 713 552 713 q 681 699 651 713 q 728 663 711 686 q 753 609 746 640 q 760 543 760 578 l 760 0 l 629 0 l 629 491 q 626 530 629 511 q 617 563 624 548 q 595 586 609 577 q 558 596 581 596 q 506 581 523 596 q 481 544 488 566 q 475 495 475 522 q 475 445 475 469 l 475 0 l 343 0 l 343 476 q 343 518 343 497 q 336 557 343 540 q 313 584 328 573 q 269 596 297 596 q 222 580 238 596 q 198 543 206 565 q 191 494 191 520 q 191 445 191 468 l 191 0 l 60 0 l 60 702 l 191 702 l 191 616 "},"9":{"x_min":61,"x_max":511,"ha":571,"o":"m 283 524 q 335 548 317 524 q 360 606 353 572 q 368 675 368 639 q 368 732 368 710 q 368 789 368 755 q 359 856 368 824 q 333 912 351 888 q 284 936 315 936 q 235 911 252 936 q 211 853 218 887 q 204 782 204 819 q 204 724 204 746 q 204 666 204 700 q 211 601 204 632 q 234 546 218 569 q 283 524 251 524 m 141 0 l 349 437 l 347 440 q 299 408 323 418 q 241 399 276 399 q 145 428 180 399 q 90 504 109 458 q 66 602 72 549 q 61 703 61 656 q 66 828 61 764 q 93 943 72 891 q 160 1028 115 995 q 284 1061 205 1061 q 408 1028 363 1061 q 476 944 454 995 q 505 829 499 892 q 511 705 511 766 q 499 545 511 618 q 468 404 488 472 q 419 269 448 336 q 354 125 390 201 l 292 0 l 141 0 "},"l":{"x_min":60,"x_max":191,"ha":251,"o":"m 191 0 l 60 0 l 60 1154 l 191 1154 l 191 0 "},"8":{"x_min":61,"x_max":512,"ha":570,"o":"m 285 629 q 327 647 311 629 q 351 690 342 665 q 360 743 360 716 q 360 788 360 770 q 360 832 360 807 q 352 880 360 858 q 328 919 344 903 q 285 935 312 935 q 242 919 258 935 q 218 880 227 903 q 210 832 210 858 q 210 788 210 807 q 210 743 210 770 q 218 690 210 716 q 242 647 227 665 q 285 629 258 629 m 284 112 q 333 130 315 112 q 359 176 350 149 q 368 234 368 203 q 368 287 368 264 q 368 344 368 309 q 359 413 368 380 q 334 469 351 445 q 284 493 317 493 q 234 469 251 493 q 210 413 218 445 q 203 344 203 380 q 203 287 203 309 q 203 234 203 264 q 211 176 203 203 q 237 130 220 149 q 284 112 254 112 m 183 569 q 122 606 145 581 q 88 663 99 631 q 72 732 76 695 q 68 802 68 769 q 77 904 68 857 q 111 985 87 951 q 175 1039 134 1019 q 276 1060 215 1060 q 385 1043 341 1060 q 455 994 429 1026 q 491 914 480 962 q 503 802 503 865 q 498 732 503 769 q 482 663 494 695 q 448 606 471 631 q 389 567 426 580 l 389 566 q 454 528 430 555 q 492 465 478 501 q 508 390 505 430 q 512 313 512 349 q 504 195 512 253 q 472 90 496 137 q 404 15 448 43 q 286 -13 359 -13 q 172 13 215 -13 q 103 82 128 39 q 69 180 78 124 q 61 294 61 235 q 61 376 61 333 q 73 457 61 419 q 111 525 85 495 q 183 566 137 555 l 183 569 "},"p":{"x_min":60,"x_max":483.9375,"ha":528,"o":"m 268 105 q 317 126 299 105 q 343 183 335 148 q 352 262 352 219 q 352 349 352 305 q 352 412 352 370 q 345 494 352 454 q 320 565 338 534 q 266 596 302 596 q 217 565 233 596 q 193 494 200 534 q 186 412 186 454 q 186 349 186 370 q 186 287 186 328 q 193 206 186 246 q 217 135 200 166 q 268 105 234 105 m 191 611 l 193 611 q 240 684 213 655 q 321 713 268 713 q 389 693 361 713 q 435 642 417 674 q 464 571 453 611 q 479 489 474 530 q 483 409 483 448 q 483 342 483 370 q 483 237 483 298 q 467 120 483 175 q 417 26 451 65 q 319 -12 382 -12 q 240 11 267 -12 q 193 79 213 35 l 191 79 l 191 -288 l 60 -288 l 60 702 l 191 702 l 191 611 "},"4":{"x_min":40,"x_max":525,"ha":571,"o":"m 322 835 l 319 835 l 149 391 l 322 391 l 322 835 m 458 391 l 525 391 l 525 288 l 458 288 l 458 0 l 322 0 l 322 288 l 40 288 l 40 407 l 322 1048 l 458 1048 l 458 391 "},"‡":{"x_min":40,"x_max":458,"ha":498,"o":"m 315 1048 l 315 730 l 458 730 l 458 616 l 315 616 l 315 360 l 458 360 l 458 246 l 315 246 l 315 -190 l 184 -190 l 184 246 l 40 246 l 40 360 l 184 360 l 184 616 l 40 616 l 40 730 l 184 730 l 184 1048 l 315 1048 "},"R":{"x_min":85,"x_max":559.609375,"ha":578,"o":"m 224 581 q 332 626 301 581 q 364 750 364 671 q 360 820 364 787 q 344 877 357 853 q 308 916 332 902 q 246 930 284 930 l 224 930 l 224 583 l 224 581 m 85 1048 l 251 1048 q 334 1043 288 1048 q 419 1012 380 1038 q 484 932 458 986 q 511 779 511 878 q 504 698 511 742 q 481 615 498 654 q 437 547 465 576 q 366 510 409 518 l 559 0 l 415 0 l 226 513 l 224 513 l 224 0 l 85 0 l 85 1048 "},"o":{"x_min":40,"x_max":481,"ha":520,"o":"m 259 108 q 314 139 297 108 q 340 209 332 169 q 348 289 348 250 q 348 348 348 329 q 348 410 348 369 q 340 492 348 451 q 314 562 332 532 q 259 593 297 593 q 204 562 222 593 q 179 492 187 532 q 171 410 171 451 q 171 348 171 369 q 171 289 171 329 q 179 209 171 250 q 204 139 187 169 q 259 108 222 108 m 260 -11 q 141 24 185 -11 q 75 113 98 59 q 46 230 52 166 q 40 348 40 293 q 46 469 40 405 q 75 587 52 533 q 141 677 98 642 q 260 713 185 713 q 379 677 335 713 q 445 587 422 642 q 474 469 468 533 q 481 348 481 405 q 474 230 481 293 q 445 113 468 166 q 379 24 422 59 q 260 -11 335 -11 "},"5":{"x_min":58.71875,"x_max":516,"ha":572,"o":"m 502 1048 l 502 927 l 275 927 l 242 663 q 364 642 312 663 q 449 582 415 622 q 500 488 484 543 q 516 367 516 433 q 501 226 516 294 q 452 105 486 158 q 361 19 417 52 q 221 -13 304 -13 q 137 -1 175 -13 q 58 30 99 10 l 94 153 q 153 124 126 137 q 217 112 180 112 q 293 135 262 112 q 341 194 324 159 q 366 269 358 228 q 374 345 374 310 q 363 429 374 391 q 331 493 353 466 q 275 536 310 521 q 192 551 240 551 q 149 548 171 551 q 107 539 128 544 l 168 1048 l 502 1048 "}}}
